<svg xmlns="http://www.w3.org/2000/svg" width="16" height="16"><path d="M1.398 15.5a.909.909 0 0 1-.636-.262.908.908 0 0 1 0-1.273L8.129 6.94l.93.934-7.024 7.363a.895.895 0 0 1-.637.262Zm0 0" style="stroke:none;fill-rule:nonzero;fill:#b6c9d6;fill-opacity:1"/><path d="m8.129 7.082.793.793-6.957 7.29a.792.792 0 0 1-.567.233.783.783 0 0 1-.562-.234.796.796 0 0 1-.004-1.125l7.297-6.957m0-.281L.69 13.895a1 1 0 1 0 1.414 1.414L9.2 7.875Zm0 0" style="stroke:none;fill-rule:nonzero;fill:#788b9c;fill-opacity:1"/><path d="M10.398 10.7a5.101 5.101 0 0 1-5.097-5.098A5.105 5.105 0 0 1 10.398.5 5.108 5.108 0 0 1 15.5 5.602a5.105 5.105 0 0 1-5.102 5.097Zm0 0" style="stroke:none;fill-rule:nonzero;fill:#fcaa19;fill-opacity:1"/><path d="M10.398.602c2.758 0 5 2.242 5 5 0 2.753-2.242 5-5 5a5.01 5.01 0 0 1-5-5c0-2.758 2.247-5 5-5m0-.204A5.2 5.2 0 0 0 5.2 5.602a5.2 5.2 0 0 0 5.2 5.199 5.2 5.2 0 1 0 0-10.403Zm0 0" style="stroke:none;fill-rule:nonzero;fill:#788b9c;fill-opacity:1"/></svg>